<svg width="19" height="19" viewBox="0 0 19 19" fill="none" xmlns="http://www.w3.org/2000/svg">
    <path d="M18.2188 9.62769C18.2188 4.84644 14.2812 0.908936 9.5 0.908936C4.68359 0.908936 0.78125 4.84644 0.78125 9.62769C0.78125 14.4441 4.68359 18.3464 9.5 18.3464C14.2812 18.3464 18.2188 14.4441 18.2188 9.62769ZM8.48047 14.2683C8.26953 14.4792 7.88281 14.4792 7.67188 14.2683L4.01562 10.6121C3.80469 10.4011 3.80469 10.0144 4.01562 9.80347L4.82422 9.03003C5.03516 8.78394 5.38672 8.78394 5.59766 9.03003L8.09375 11.491L13.3672 6.21753C13.5781 5.97144 13.9297 5.97144 14.1406 6.21753L14.9492 6.99097C15.1602 7.2019 15.1602 7.58862 14.9492 7.79956L8.48047 14.2683Z"
          fill="#616161"/>
</svg>
