<svg width="18" height="14" viewBox="0 0 18 14" fill="none" xmlns="http://www.w3.org/2000/svg">
<path d="M17.6484 4.84277C16.8398 5.47559 15.8203 6.24902 12.2344 8.85059C11.5312 9.37793 10.2305 10.5381 9 10.5381C7.73438 10.5381 6.46875 9.37793 5.73047 8.85059C2.14453 6.24902 1.125 5.47559 0.316406 4.84277C0.175781 4.7373 0 4.84277 0 5.01855V12.1904C0 13.1396 0.738281 13.8779 1.6875 13.8779H16.3125C17.2266 13.8779 18 13.1396 18 12.1904V5.01855C18 4.84277 17.7891 4.7373 17.6484 4.84277ZM9 9.37793C9.80859 9.41309 10.9688 8.3584 11.5664 7.93652C16.2422 4.56152 16.5938 4.24512 17.6484 3.40137C17.8594 3.26074 18 3.01465 18 2.7334V2.06543C18 1.15137 17.2266 0.37793 16.3125 0.37793H1.6875C0.738281 0.37793 0 1.15137 0 2.06543V2.7334C0 3.01465 0.105469 3.26074 0.316406 3.40137C1.37109 4.24512 1.72266 4.56152 6.39844 7.93652C6.99609 8.3584 8.15625 9.41309 9 9.37793Z" fill="#FF6A00"/>
</svg>
