<svg width="145" height="29" viewBox="0 0 145 29" fill="none" xmlns="http://www.w3.org/2000/svg">
<g clip-path="url(#clip0_201_40)">
<path d="M11.4964 5.10959C9.80423 5.10959 9.29658 5.8558 9.29658 7.5178V10.2652H13.8316L13.3916 14.7424H9.29658V28.2759H3.84782V14.7424H0.192749V10.2991H3.84782V7.61955C3.84782 3.07448 5.67535 0.700195 10.718 0.700195C11.7671 0.700195 12.8501 0.768032 13.8993 0.903706V5.10959" fill="#BDBDBD"/>
<path d="M14.2043 18.7079C14.2043 13.688 16.5733 9.88916 21.5821 9.88916C24.2895 9.88916 25.9479 11.2798 26.7601 13.0436V10.2962H31.972V28.3069H26.7263V25.5934C25.9817 27.3232 24.2557 28.68 21.5482 28.68C16.5733 28.68 14.1704 24.915 14.1704 19.8612L14.2043 18.7079ZM19.653 19.929C19.653 22.6086 20.6345 24.4062 23.1727 24.4062C25.4064 24.4062 26.5232 22.7782 26.5232 20.2004V18.3688C26.5232 15.791 25.3725 14.1629 23.1727 14.1629C20.6345 14.1629 19.653 15.9266 19.653 18.6401V19.929Z" fill="#BDBDBD"/>
<path d="M43.2757 9.88916C45.374 9.88916 47.4046 10.3301 48.4876 11.1102L47.2692 14.9769C46.1524 14.4342 44.9002 14.1629 43.648 14.1629C40.7036 14.1629 39.4176 15.8588 39.4176 18.7758V19.8273C39.4176 22.7442 40.7036 24.4402 43.648 24.4402C44.9002 24.4402 46.1524 24.1349 47.2692 23.5922L48.4876 27.4589C47.4046 28.2051 45.4078 28.68 43.2757 28.68C36.8793 28.68 34.0027 25.2542 34.0027 19.7255V18.8775C34.0027 13.3488 36.8793 9.88916 43.2757 9.88916Z" fill="#BDBDBD"/>
<path d="M49.1974 19.9629V18.3688C49.1974 13.2471 52.108 9.88916 58.0305 9.88916C63.6147 9.88916 66.0852 13.281 66.0852 18.3009V21.184H54.6462C54.7477 23.66 55.8646 24.7454 58.8766 24.7454C60.8395 24.7454 62.8024 24.3723 64.6638 23.66L65.6453 27.3911C64.2238 28.1373 61.2795 28.7139 58.6736 28.7139C51.7695 28.68 49.1974 25.2542 49.1974 19.9629ZM54.6462 17.5886H61.2118V17.1477C61.2118 15.1804 60.4334 13.6202 58.0305 13.6202C55.5938 13.6202 54.6462 15.1804 54.6462 17.5886Z" fill="#BDBDBD"/>
<path d="M86.256 19.8612C86.256 24.8811 83.8532 28.68 78.8444 28.68C76.1369 28.68 74.2417 27.3232 73.4971 25.5934V28.3069H68.353V1.23999L73.8017 0.765137V12.8062C74.5801 11.212 76.34 9.92311 78.8782 9.92311C83.8532 9.92311 86.2899 13.688 86.2899 18.7419L86.256 19.8612ZM80.8073 18.6062C80.8073 16.0623 79.8258 14.1629 77.2199 14.1629C74.9862 14.1629 73.8017 15.7571 73.8017 18.3349V20.2343C73.8017 22.8121 75.0201 24.4063 77.2199 24.4063C79.8258 24.4063 80.8073 22.5068 80.8073 19.963V18.6062Z" fill="#BDBDBD"/>
<path d="M88.0498 19.7255V18.8097C88.0498 13.6202 90.9942 9.88916 96.9845 9.88916C102.975 9.88916 105.919 13.6202 105.919 18.8097V19.7255C105.919 24.915 102.975 28.646 96.9845 28.646C90.9942 28.646 88.0498 24.9489 88.0498 19.7255ZM100.504 18.4366C100.504 16.0623 99.5227 14.1629 96.9845 14.1629C94.4462 14.1629 93.4648 16.0623 93.4648 18.4366V20.1325C93.4648 22.5068 94.4462 24.4062 96.9845 24.4062C99.5227 24.4062 100.504 22.5068 100.504 20.1325V18.4366Z" fill="#BDBDBD"/>
<path d="M107.781 19.7255V18.8097C107.781 13.6202 110.725 9.88916 116.716 9.88916C122.706 9.88916 125.65 13.6202 125.65 18.8097V19.7255C125.65 24.915 122.706 28.646 116.716 28.646C110.725 28.646 107.781 24.9489 107.781 19.7255ZM120.235 18.4366C120.235 16.0623 119.254 14.1629 116.716 14.1629C114.177 14.1629 113.196 16.0623 113.196 18.4366V20.1325C113.196 22.5068 114.177 24.4062 116.716 24.4062C119.254 24.4062 120.235 22.5068 120.235 20.1325V18.4366Z" fill="#BDBDBD"/>
<path d="M133.129 18.8776L138.51 10.2623H144.263L138.645 19.1828L144.5 28.3069H138.713L133.129 19.4881V28.3069H127.714V1.23998L133.129 0.731201" fill="#BDBDBD"/>
</g>
<defs>
<clipPath id="clip0_201_40">
<rect width="144.308" height="28" fill="white" transform="translate(0.192749 0.688721)"/>
</clipPath>
</defs>
</svg>
