<svg width="150" height="37" viewBox="0 0 150 37" fill="none" xmlns="http://www.w3.org/2000/svg">
<g clip-path="url(#clip0_201_50)">
<path d="M21.2596 6.09169L0.893219 4.9589L14.1664 19.1928L21.2596 6.09169ZM11.0705 4.5734L20.4649 5.24358L8.82271 0.688721L11.0705 4.5734ZM22.8313 5.24358L27.8369 0.688721L31.2115 5.52826L22.8313 5.24358ZM22.2679 6.14506L14.8959 19.7563L21.5917 27.1223L29.1239 20.0943L31.2056 6.5958L22.2679 6.14506ZM15.2932 21.8914L11.7466 36.6887L20.969 27.9111L15.2932 21.8914ZM28.9044 0.914091L32.5044 5.52826L49.2115 0.914091H28.9044Z" fill="#BDBDBD"/>
<path d="M44.5552 9.29443C44.5611 10.4391 44.49 11.5778 44.3417 12.7106C43.1615 12.7521 41.6847 12.3251 41.7262 14.3534C43.541 14.3119 44.0274 14.3534 44.0274 14.3534C44.0274 14.3534 43.9443 17.9416 41.2399 17.8051C40.2672 23.2911 39.342 28.101 39.342 28.101H35.0125L37.373 12.758C37.373 12.758 37.9186 9.63842 40.7476 9.3063L44.5552 9.29443ZM42.6574 28.1129L44.9348 14.1102H48.9025L49.2109 15.1659C49.2109 15.1659 50.2073 13.7722 53.2023 14.1102C52.4847 17.5264 52.3601 18.0364 52.3601 18.0364C52.3601 18.0364 49.0686 17.6984 48.8135 18.7541C48.5585 19.8098 47.2537 28.1188 47.2537 28.1188L42.6574 28.1129ZM77.7974 16.6368C76.9137 15.0355 75.3064 13.5705 71.5107 14.0509C67.715 14.5313 64.9928 18.2677 65.1826 23.3386C65.5681 27.5554 68.5631 28.3027 69.6129 28.445C76.7417 29.2872 76.8307 25.5745 76.8722 24.1808C75.3954 24.1808 74.7015 24.2104 74.0847 24.2223C73.9068 24.8035 71.0185 24.5188 71.0185 24.5188C71.0185 24.5188 69.9213 24.4358 69.8382 22.4964H77.8152C77.8092 22.4964 78.687 18.244 77.7974 16.6368ZM73.7051 20.0529C72.9045 20.136 70.2059 20.0529 70.2059 20.0529C71.2616 15.8776 74.1677 17.6925 73.7051 20.0529ZM133.82 16.6368C132.936 15.0355 131.329 13.5705 127.533 14.0509C123.737 14.5313 121.015 18.2677 121.205 23.3386C121.59 27.5554 124.586 28.3027 125.635 28.445C132.764 29.2872 132.853 25.5745 132.895 24.1808C131.418 24.1808 130.724 24.2104 130.107 24.2223C129.929 24.8035 127.041 24.5188 127.041 24.5188C127.041 24.5188 125.944 24.4358 125.861 22.4964H133.826C133.82 22.4964 134.686 18.244 133.82 16.6368ZM129.728 20.0529C128.927 20.136 126.228 20.0529 126.228 20.0529C127.266 15.8776 130.178 17.6925 129.71 20.0529H129.728Z" fill="#BDBDBD"/>
<path d="M64.7803 16.6366C63.8966 15.0353 62.2894 13.5704 58.4937 14.0508C54.6979 14.5312 51.9757 18.2676 52.1655 23.3384C52.551 27.5552 55.546 28.3025 56.5958 28.4448C63.7246 29.287 63.8136 25.5743 63.8551 24.1806C62.3783 24.1806 61.6844 24.2102 61.0676 24.2221C60.8897 24.8033 58.0014 24.5186 58.0014 24.5186C58.0014 24.5186 56.9042 24.4356 56.8212 22.4962H64.7862C64.7803 22.4962 65.6699 18.2439 64.7803 16.6366ZM60.6821 20.0527C59.8815 20.1358 57.183 20.0527 57.183 20.0527C58.2564 15.8775 61.1507 17.6923 60.6821 20.0527ZM80.7935 9.63232L77.8815 28.1068H82.5253L85.6449 9.63232H80.7935ZM96.3619 28.1127L98.7223 14.0567H102.856V15.1302C102.856 15.1302 104.291 13.5704 108.087 14.0567C111.883 14.5371 109.985 21.2804 109.985 21.2804L108.971 28.1246H104.416C104.416 28.1246 105.472 21.2211 105.679 19.3885C105.466 17.3186 103.022 17.4076 102.429 18.8844C102.133 20.6992 100.786 28.1246 100.786 28.1246L96.3619 28.1127ZM116.906 18.0719H121.081L121.467 15.3318C121.467 15.3318 121.971 14.0686 120.204 14.0448C118.436 14.0211 115.773 14.0448 115.773 14.0448C115.773 14.0448 110.584 14.7803 110.88 24.9516C111.153 26.7664 112.535 28.2195 114.332 28.5753C114.718 28.6584 117.398 28.5753 117.398 28.5753C117.398 28.5753 120.393 28.1898 119.972 24.4415C116.853 24.5246 115.542 24.6551 115.37 23.7654C115.192 22.8817 115.726 18.4099 116.906 18.0719ZM134.877 18.742L140.333 14.0389L138.251 28.1127H133.643L134.877 18.742Z" fill="#BDBDBD"/>
<path d="M141.459 14.039L140.67 19.0802L149.163 13.9619L141.459 14.039Z" fill="#BDBDBD"/>
<path d="M93.6629 14.0508C90.1637 14.0211 89.3571 14.0805 88.0524 14.0508C86.7417 14.0211 85.858 15.9664 85.941 18.0304H91.3084C91.3084 18.0304 91.854 17.9473 91.9014 18.4159C91.9252 18.8666 91.9252 19.3174 91.9014 19.7681H88.0109C88.0109 19.7681 82.5249 20.2722 84.2567 26.8969C84.5947 27.9111 86.2791 28.6169 87.2102 28.5813C88.1413 28.5457 90.4603 27.6976 90.8398 27.3595L90.8814 28.1602L95.0151 28.1187C95.0151 28.1187 96.4088 19.4716 96.5749 18.7539C96.741 18.0363 97.0375 15.2666 93.6629 14.0508ZM90.0451 25.0465C88.4141 25.0465 88.1888 23.4689 89.4876 22.6267C90.7805 22.0633 91.5693 22.4014 91.5693 22.4014C91.5693 22.4014 91.6286 25.1058 90.0451 25.0465Z" fill="#BDBDBD"/>
</g>
<defs>
<clipPath id="clip0_201_50">
<rect width="148.27" height="36" fill="white" transform="translate(0.893219 0.688721)"/>
</clipPath>
</defs>
</svg>
