<svg width="314" height="315" viewBox="0 0 314 315" fill="none" xmlns="http://www.w3.org/2000/svg">
    <g clip-path="url(#clip0_201_333)">
        <rect x="315.312" y="97.6901" width="311.904" height="137.62" transform="rotate(135 315.312 97.6901)"
              fill="url(#paint0_linear_201_333)"/>
        <g clip-path="url(#clip1_201_333)">
            <path d="M272.261 81.1588L272.258 81.1585L63.5042 57.4695C63.5042 57.4695 63.5042 57.4695 63.5042 57.4695C61.3725 57.2276 59.2139 57.4089 57.1525 58.0031C55.091 58.5973 53.167 59.5927 51.4911 60.9321L53.6341 63.6136L51.4911 60.9321C49.8151 62.2715 48.4201 63.9286 47.3861 65.8084C46.3531 67.6862 45.7006 69.7493 45.466 71.8796L29.9928 208.234C29.5051 212.531 30.7403 216.846 33.4278 220.235C36.1154 223.623 40.0362 225.808 44.3316 226.312L44.3442 226.313L253.098 250.002L253.109 250.003C257.411 250.477 261.726 249.23 265.112 246.535C268.498 243.839 270.68 239.913 271.182 235.615L271.183 235.603L286.657 99.2434L286.657 99.2409C287.143 94.9346 285.899 90.6116 283.2 87.2213C280.501 83.831 276.566 81.6506 272.261 81.1588Z"
                  fill="url(#paint1_linear_201_333)" stroke="#38BC67" stroke-width="6.86524"/>
            <path d="M185.387 261.416L172.504 259.954L175.002 237.943L123.204 232.065L120.705 254.09L107.779 252.623C106.837 252.516 105.891 252.788 105.15 253.378C104.408 253.969 103.932 254.829 103.825 255.771C103.718 256.713 103.99 257.659 104.58 258.4C105.17 259.142 106.031 259.618 106.973 259.725L184.58 268.532C185.522 268.639 186.467 268.367 187.209 267.777C187.95 267.186 188.427 266.326 188.534 265.384C188.641 264.442 188.369 263.496 187.779 262.755C187.188 262.013 186.328 261.537 185.386 261.43L185.387 261.416Z"
                  fill="#0B7E34"/>
            <mask id="mask0_201_333" style="mask-type:alpha" maskUnits="userSpaceOnUse" x="103" y="232" width="86"
                  height="37">
                <path d="M185.387 261.416L172.504 259.954L175.002 237.943L123.204 232.065L120.705 254.09L107.779 252.623C106.837 252.516 105.891 252.788 105.15 253.378C104.408 253.969 103.932 254.829 103.825 255.771C103.718 256.713 103.99 257.659 104.58 258.4C105.17 259.142 106.031 259.618 106.973 259.725L184.58 268.532C185.522 268.639 186.467 268.367 187.209 267.777C187.95 267.186 188.427 266.326 188.534 265.384C188.641 264.442 188.369 263.496 187.779 262.755C187.188 262.013 186.328 261.537 185.386 261.43L185.387 261.416Z"
                      fill="#0B7E34"/>
            </mask>
            <g mask="url(#mask0_201_333)">
                <rect x="79.9794" y="234.002" width="100.067" height="15.1888"
                      transform="rotate(6.47411 79.9794 234.002)" fill="url(#paint2_linear_201_333)"/>
                <rect x="91.1389" y="250.555" width="119.36" height="21.6385"
                      transform="rotate(6.47411 91.1389 250.555)" fill="url(#paint3_linear_201_333)"/>
            </g>
            <mask id="mask1_201_333" style="mask-type:alpha" maskUnits="userSpaceOnUse" x="24" y="-9" width="263"
                  height="335">
                <rect width="251.1" height="325.615"
                      transform="matrix(-0.999422 -0.0339897 -0.0339896 0.999422 286.407 0.421021)"
                      fill="url(#paint4_linear_201_333)"/>
            </mask>
            <g mask="url(#mask1_201_333)">
                <path d="M192.371 204.61C192.371 204.61 188.705 208.563 178.929 208.23C163.82 207.716 144.449 202.98 144.449 202.98C144.449 202.98 89.7818 167.997 89.0288 190.138C88.7202 199.212 197.725 232.839 197.725 232.839L290.143 235.982L192.371 204.61Z"
                      fill="url(#paint5_linear_201_333)" style="mix-blend-mode:multiply"/>
            </g>
            <g clip-path="url(#clip2_201_333)">
                <path d="M187.45 146.284L209.89 129.863L211.829 130.985L196.975 204.871C196.649 206.491 195.199 207.638 193.547 207.582C191.589 207.515 190.097 205.802 190.301 203.853L193.511 173.168C194.383 164.832 192.178 156.478 187.335 149.667L187.45 146.284Z"
                      fill="#28A154"/>
                <path d="M193.6 204.464L202.816 135.04L209.89 129.863L211.829 130.985L196.975 204.871C196.649 206.491 195.199 207.638 193.547 207.582C192.898 207.56 192.303 207.354 191.801 207.022C192.756 206.527 193.451 205.59 193.6 204.464Z"
                      fill="#28A154"/>
                <mask id="mask2_201_333" style="mask-type:alpha" maskUnits="userSpaceOnUse" x="187" y="129" width="25"
                      height="79">
                    <path d="M187.45 146.284L209.89 129.863L211.829 130.985L196.975 204.871C196.649 206.491 195.199 207.638 193.547 207.582C191.589 207.515 190.097 205.802 190.301 203.853L193.511 173.168C194.383 164.832 192.178 156.478 187.335 149.667L187.45 146.284Z"
                          fill="#B8D1FF"/>
                </mask>
                <g mask="url(#mask2_201_333)">
                    <rect width="45.6322" height="59.8715"
                          transform="matrix(-0.93552 0.353274 0.353274 0.93552 209.875 114.618)"
                          fill="url(#paint6_linear_201_333)" style="mix-blend-mode:multiply"/>
                </g>
                <path d="M154.321 154.441C173.537 121.465 193.73 100.655 193.73 100.655L194.881 104.641L153.938 176.545L135.092 183.263L116.707 177.118L116.813 174.003C128.724 175.186 143.918 172.292 154.321 154.441Z"
                      fill="#1F8D47"/>
                <path d="M135.092 183.262L126.493 180.388C137.004 178.335 148.238 172.008 154.457 155.827C155.087 154.188 155.723 152.576 156.363 150.989C174.94 120.021 193.73 100.655 193.73 100.655L194.881 104.641L167.626 152.505L167.099 152.278L165.852 155.621L153.938 176.545L135.092 183.262Z"
                      fill="url(#paint7_linear_201_333)"/>
                <path d="M202.938 97.5815C201.288 95.5774 198.239 95.5227 196.501 97.4504C191.019 103.528 179.314 118.141 168.588 142.284C154.56 173.861 142.658 189.741 116.177 173.625C113.911 172.246 111.131 172.002 108.663 172.977C101.15 175.07 95.348 177.138 90.9416 178.974C85.2468 181.347 84.9708 189.306 90.4999 192.042C97.6958 195.604 107.746 199.962 119.408 203.302C129.545 206.206 138.67 205.93 145.791 204.666C154.374 203.142 161.399 196.971 164.039 188.663C175.956 151.164 205.431 134.273 211.829 130.985C212.602 130.587 213.096 129.798 213.114 128.929C213.434 112.918 207.021 102.54 202.938 97.5815Z"
                      fill="url(#paint8_linear_201_333)"/>
                <mask id="mask3_201_333" style="mask-type:alpha" maskUnits="userSpaceOnUse" x="86" y="96" width="128"
                      height="110">
                    <path d="M202.938 97.5815C201.288 95.5774 198.239 95.5227 196.501 97.4504C191.019 103.528 179.314 118.141 168.588 142.284C154.56 173.861 142.658 189.741 116.177 173.625C113.911 172.246 111.131 172.002 108.663 172.977C101.15 175.07 95.348 177.138 90.9416 178.974C85.2468 181.347 84.9708 189.306 90.4999 192.042C97.6958 195.604 107.746 199.962 119.408 203.302C129.545 206.206 138.67 205.93 145.791 204.666C154.374 203.142 161.399 196.971 164.039 188.663C175.956 151.164 205.431 134.273 211.829 130.985C212.602 130.587 213.096 129.798 213.114 128.929C213.434 112.918 207.021 102.54 202.938 97.5815Z"
                          fill="url(#paint9_linear_201_333)"/>
                </mask>
                <g mask="url(#mask3_201_333)">
                    <rect width="399.242" height="414.833"
                          transform="matrix(-0.88252 0.470275 0.470275 0.88252 275.047 -117.218)"
                          fill="url(#paint10_linear_201_333)" style="mix-blend-mode:overlay"/>
                    <rect width="235.475" height="155.059"
                          transform="matrix(-0.88252 0.470275 0.470275 0.88252 242.794 -3.62439)"
                          fill="url(#paint11_linear_201_333)" fill-opacity="0.7"/>
                </g>
            </g>
            <g opacity="0.6">
                <mask id="mask4_201_333" style="mask-type:alpha" maskUnits="userSpaceOnUse" x="33" y="60" width="251"
                      height="187">
                    <path d="M271.871 84.5693L63.1169 60.8804C61.4341 60.6894 59.7302 60.8325 58.1029 61.3016C56.4755 61.7706 54.9568 62.5564 53.6338 63.6137C52.3109 64.671 51.2097 65.9791 50.3934 67.463C49.5771 68.9469 49.0618 70.5773 48.8771 72.2608L33.4032 208.621C33.018 212.016 33.9938 215.425 36.117 218.102C38.2401 220.779 41.3376 222.505 44.731 222.903L253.485 246.592C256.886 246.966 260.297 245.98 262.973 243.849C265.65 241.718 267.375 238.615 267.772 235.217L283.246 98.8565C283.63 95.4539 282.647 92.0383 280.514 89.3595C278.382 86.6808 275.273 84.9579 271.871 84.5693Z"
                          fill="url(#paint12_linear_201_333)"/>
                </mask>
                <g mask="url(#mask4_201_333)">
                    <path d="M104.285 232.336L205.877 48.4376C206.696 46.9552 207.402 45.4296 207.955 43.9484C208.509 42.4671 208.898 41.0593 209.101 39.8058C209.304 38.5523 209.316 37.4777 209.138 36.6436C208.959 35.8095 208.593 35.2324 208.06 34.9454L165.15 11.24C164.082 10.6498 162.402 11.2688 160.479 12.9615C158.556 14.6542 156.547 17.2826 154.891 20.271L53.2988 204.169C51.6479 207.166 50.4893 210.271 50.0759 212.806C49.6625 215.342 50.0279 217.102 51.0922 217.703L94.0027 241.408C95.0746 241.997 96.7594 241.373 98.6872 239.672C100.615 237.971 102.628 235.332 104.285 232.336Z"
                          fill="white"/>
                </g>
            </g>
            <g clip-path="url(#clip3_201_333)">
                <path d="M286.757 48.7457L276.951 39.7986L266.512 51.2394L275.257 71.1976L286.757 48.7457Z"
                      fill="#3BC374"/>
                <path d="M286.757 48.7455L270.354 66.7238L286.126 69.1333L296.564 57.6926L286.757 48.7455Z"
                      fill="#21B25E"/>
                <path d="M228.052 102.059L223.722 117.834L239.795 106.784L228.052 102.059Z" fill="#3BC474"/>
                <path d="M223.723 117.834L239.036 112.081L236.526 103.801L223.723 117.834Z" fill="#21B35E"/>
                <path d="M250.492 95.0587L231.453 89.6668L228.052 102.059L233.544 107.07L250.492 95.0587Z"
                      fill="#D3F7DF"/>
                <path d="M233.544 107.07L239.036 112.081L251.065 107.561L247.224 92.0764L233.544 107.07Z"
                      fill="#B4F3CA"/>
                <path d="M241.258 98.6141L251.064 107.561L286.125 69.1336L276.319 60.1866L252.384 73.2895L241.258 98.6141Z"
                      fill="#5DDA8A"/>
                <path d="M231.449 89.6648L266.504 51.2431L276.309 60.1889L241.253 98.6105L231.449 89.6648Z"
                      fill="#74E29B"/>
            </g>
        </g>
    </g>
    <defs>
        <linearGradient id="paint0_linear_201_333" x1="629.74" y1="177.71" x2="320.711" y2="196.663"
                        gradientUnits="userSpaceOnUse">
            <stop stop-color="#DFFFED" stop-opacity="0"/>
            <stop offset="0.188733" stop-color="#BCFFD8"/>
            <stop offset="0.838542" stop-color="#D3FFE7"/>
            <stop offset="1" stop-color="#DFFFED" stop-opacity="0"/>
        </linearGradient>
        <linearGradient id="paint1_linear_201_333" x1="167.518" y1="72.7274" x2="149.132" y2="234.75"
                        gradientUnits="userSpaceOnUse">
            <stop stop-color="#F1FFF7"/>
            <stop offset="1" stop-color="#DFFFEC"/>
        </linearGradient>
        <linearGradient id="paint2_linear_201_333" x1="130.013" y1="234.002" x2="130.013" y2="249.191"
                        gradientUnits="userSpaceOnUse">
            <stop stop-color="#0B7E34"/>
            <stop offset="1" stop-color="#059438"/>
        </linearGradient>
        <linearGradient id="paint3_linear_201_333" x1="150.819" y1="250.555" x2="150.819" y2="272.193"
                        gradientUnits="userSpaceOnUse">
            <stop stop-color="#45CF76"/>
            <stop offset="1" stop-color="#059438"/>
        </linearGradient>
        <linearGradient id="paint4_linear_201_333" x1="125.55" y1="0" x2="125.55" y2="325.615"
                        gradientUnits="userSpaceOnUse">
            <stop stop-color="#E6EFFF" stop-opacity="0"/>
            <stop offset="0.546875" stop-color="#E6EFFF"/>
            <stop offset="1" stop-color="#E6EFFF" stop-opacity="0"/>
        </linearGradient>
        <linearGradient id="paint5_linear_201_333" x1="160.016" y1="201.803" x2="221.052" y2="237.539"
                        gradientUnits="userSpaceOnUse">
            <stop stop-color="#28A154" stop-opacity="0.31"/>
            <stop offset="1" stop-color="#28A154" stop-opacity="0"/>
        </linearGradient>
        <linearGradient id="paint6_linear_201_333" x1="25.0978" y1="20.5398" x2="31.5346" y2="64.4835"
                        gradientUnits="userSpaceOnUse">
            <stop stop-color="#67BC8D"/>
            <stop offset="1" stop-color="#A5DCBD" stop-opacity="0"/>
        </linearGradient>
        <linearGradient id="paint7_linear_201_333" x1="145.722" y1="136.158" x2="159.273" y2="184.085"
                        gradientUnits="userSpaceOnUse">
            <stop stop-color="#127938"/>
            <stop offset="1" stop-color="#127938" stop-opacity="0.32"/>
        </linearGradient>
        <linearGradient id="paint8_linear_201_333" x1="151.946" y1="94.4152" x2="194.803" y2="208.405"
                        gradientUnits="userSpaceOnUse">
            <stop stop-color="#28A154"/>
            <stop offset="1" stop-color="#095E28"/>
        </linearGradient>
        <linearGradient id="paint9_linear_201_333" x1="86.944" y1="75.9982" x2="204.996" y2="260.218"
                        gradientUnits="userSpaceOnUse">
            <stop stop-color="#C9DCFF"/>
            <stop offset="0.996063" stop-color="#055CFF"/>
        </linearGradient>
        <linearGradient id="paint10_linear_201_333" x1="221.398" y1="167.738" x2="179.241" y2="277.787"
                        gradientUnits="userSpaceOnUse">
            <stop stop-color="#DDDDDD"/>
            <stop offset="1" stop-color="#7B7B7B"/>
        </linearGradient>
        <linearGradient id="paint11_linear_201_333" x1="180.23" y1="58.4195" x2="133.27" y2="161.967"
                        gradientUnits="userSpaceOnUse">
            <stop stop-color="white"/>
            <stop offset="1" stop-color="white" stop-opacity="0"/>
        </linearGradient>
        <linearGradient id="paint12_linear_201_333" x1="167.518" y1="72.7275" x2="149.132" y2="234.75"
                        gradientUnits="userSpaceOnUse">
            <stop stop-color="#F1FFF7"/>
            <stop offset="1" stop-color="#DFFFEC"/>
        </linearGradient>
        <clipPath id="clip0_201_333">
            <rect width="314" height="314" fill="white" transform="translate(0 0.37793)"/>
        </clipPath>
        <clipPath id="clip1_201_333">
            <rect width="357.383" height="357.383" fill="white"
                  transform="translate(-0.706497 -29.625) rotate(6.47411)"/>
        </clipPath>
        <clipPath id="clip2_201_333">
            <rect width="124.611" height="124.611" fill="white"
                  transform="matrix(-0.999422 -0.0339897 -0.0339896 0.999422 214.437 90.0751)"/>
        </clipPath>
        <clipPath id="clip3_201_333">
            <rect width="75.5176" height="75.5176" fill="white"
                  transform="translate(220.266 42.3954) rotate(-2.62329)"/>
        </clipPath>
    </defs>
</svg>
