<svg width="20" height="20" viewBox="0 0 20 20" fill="none" xmlns="http://www.w3.org/2000/svg">
<g clip-path="url(#clip0_201_476)">
<path d="M6.83439 9.87793C6.83439 8.12909 8.25172 6.71101 10.0006 6.71101C11.7494 6.71101 13.1675 8.12909 13.1675 9.87793C13.1675 11.6268 11.7494 13.0448 10.0006 13.0448C8.25172 13.0448 6.83439 11.6268 6.83439 9.87793ZM5.12242 9.87793C5.12242 12.5721 7.30635 14.7561 10.0006 14.7561C12.6948 14.7561 14.8787 12.5721 14.8787 9.87793C14.8787 7.18373 12.6948 4.99979 10.0006 4.99979C7.30635 4.99979 5.12242 7.18373 5.12242 9.87793ZM13.9318 4.80637C13.9317 5.03184 13.9985 5.25228 14.1237 5.4398C14.2489 5.62732 14.4268 5.77351 14.6351 5.85988C14.8434 5.94625 15.0726 5.96891 15.2938 5.92501C15.5149 5.88111 15.7181 5.77262 15.8776 5.61325C16.0371 5.45389 16.1457 5.2508 16.1898 5.02968C16.2339 4.80856 16.2114 4.57933 16.1252 4.37099C16.039 4.16265 15.893 3.98455 15.7055 3.85921C15.5181 3.73387 15.2977 3.66692 15.0723 3.66683H15.0718C14.7696 3.66697 14.4798 3.78706 14.266 4.00072C14.0523 4.21438 13.9321 4.50415 13.9318 4.80637ZM6.16255 17.6107C5.23634 17.5685 4.73292 17.4142 4.39836 17.2839C3.95483 17.1112 3.63836 16.9056 3.30564 16.5733C2.97291 16.241 2.76695 15.9249 2.59504 15.4813C2.46462 15.1469 2.31034 14.6434 2.26824 13.7171C2.22218 12.7158 2.21299 12.415 2.21299 9.87801C2.21299 7.34105 2.22294 7.04108 2.26824 6.03887C2.31042 5.11265 2.46584 4.61007 2.59504 4.27468C2.76771 3.83114 2.97336 3.51468 3.30564 3.18195C3.63791 2.84922 3.95407 2.64326 4.39836 2.47135C4.73276 2.34093 5.23634 2.18665 6.16255 2.14455C7.16393 2.09849 7.46474 2.0893 10.0006 2.0893C12.5364 2.0893 12.8375 2.09925 13.8397 2.14455C14.7659 2.18673 15.2685 2.34215 15.6039 2.47135C16.0474 2.64326 16.3639 2.84968 16.6966 3.18195C17.0293 3.51422 17.2345 3.83114 17.4072 4.27468C17.5376 4.60908 17.6919 5.11265 17.734 6.03887C17.7801 7.04108 17.7893 7.34105 17.7893 9.87801C17.7893 12.415 17.7801 12.7149 17.734 13.7171C17.6918 14.6434 17.5368 15.1468 17.4072 15.4813C17.2345 15.9249 17.0289 16.2413 16.6966 16.5733C16.3643 16.9053 16.0474 17.1112 15.6039 17.2839C15.2695 17.4143 14.7659 17.5686 13.8397 17.6107C12.8383 17.6568 12.5375 17.666 10.0006 17.666C7.4636 17.666 7.16362 17.6568 6.16255 17.6107ZM6.08389 0.435462C5.07256 0.481518 4.38149 0.641878 3.77798 0.876718C3.15295 1.11923 2.62384 1.44459 2.09511 1.97249C1.56638 2.50038 1.24186 3.03033 0.999341 3.65535C0.764501 4.25925 0.604141 4.94994 0.558085 5.96127C0.511269 6.9742 0.500553 7.29803 0.500553 9.87793C0.500553 12.4578 0.511269 12.7817 0.558085 13.7946C0.604141 14.806 0.764501 15.4966 0.999341 16.1005C1.24186 16.7251 1.56645 17.2557 2.09511 17.7834C2.62376 18.311 3.15295 18.6359 3.77798 18.8791C4.38263 19.114 5.07256 19.2743 6.08389 19.3204C7.09735 19.3665 7.42066 19.3779 10.0006 19.3779C12.5804 19.3779 12.9043 19.3672 13.9172 19.3204C14.9286 19.2743 15.6192 19.114 16.2231 18.8791C16.8478 18.6359 17.3773 18.3113 17.906 17.7834C18.4347 17.2555 18.7586 16.7251 19.0018 16.1005C19.2366 15.4966 19.3977 14.8059 19.443 13.7946C19.4891 12.7809 19.4998 12.4578 19.4998 9.87793C19.4998 7.29803 19.4891 6.9742 19.443 5.96127C19.397 4.94986 19.2366 4.25887 19.0018 3.65535C18.7586 3.03071 18.4339 2.50122 17.906 1.97249C17.3781 1.44375 16.8478 1.11923 16.2239 0.876718C15.6192 0.641878 14.9285 0.480758 13.918 0.435462C12.905 0.389406 12.5812 0.37793 10.0013 0.37793C7.42142 0.37793 7.09735 0.388646 6.08389 0.435462Z" fill="url(#paint0_radial_201_476)"/>
<path d="M6.83439 9.87793C6.83439 8.12909 8.25172 6.71101 10.0006 6.71101C11.7494 6.71101 13.1675 8.12909 13.1675 9.87793C13.1675 11.6268 11.7494 13.0448 10.0006 13.0448C8.25172 13.0448 6.83439 11.6268 6.83439 9.87793ZM5.12242 9.87793C5.12242 12.5721 7.30635 14.7561 10.0006 14.7561C12.6948 14.7561 14.8787 12.5721 14.8787 9.87793C14.8787 7.18373 12.6948 4.99979 10.0006 4.99979C7.30635 4.99979 5.12242 7.18373 5.12242 9.87793ZM13.9318 4.80637C13.9317 5.03184 13.9985 5.25228 14.1237 5.4398C14.2489 5.62732 14.4268 5.77351 14.6351 5.85988C14.8434 5.94625 15.0726 5.96891 15.2938 5.92501C15.5149 5.88111 15.7181 5.77262 15.8776 5.61325C16.0371 5.45389 16.1457 5.2508 16.1898 5.02968C16.2339 4.80856 16.2114 4.57933 16.1252 4.37099C16.039 4.16265 15.893 3.98455 15.7055 3.85921C15.5181 3.73387 15.2977 3.66692 15.0723 3.66683H15.0718C14.7696 3.66697 14.4798 3.78706 14.266 4.00072C14.0523 4.21438 13.9321 4.50415 13.9318 4.80637ZM6.16255 17.6107C5.23634 17.5685 4.73292 17.4142 4.39836 17.2839C3.95483 17.1112 3.63836 16.9056 3.30564 16.5733C2.97291 16.241 2.76695 15.9249 2.59504 15.4813C2.46462 15.1469 2.31034 14.6434 2.26824 13.7171C2.22218 12.7158 2.21299 12.415 2.21299 9.87801C2.21299 7.34105 2.22294 7.04108 2.26824 6.03887C2.31042 5.11265 2.46584 4.61007 2.59504 4.27468C2.76771 3.83114 2.97336 3.51468 3.30564 3.18195C3.63791 2.84922 3.95407 2.64326 4.39836 2.47135C4.73276 2.34093 5.23634 2.18665 6.16255 2.14455C7.16393 2.09849 7.46474 2.0893 10.0006 2.0893C12.5364 2.0893 12.8375 2.09925 13.8397 2.14455C14.7659 2.18673 15.2685 2.34215 15.6039 2.47135C16.0474 2.64326 16.3639 2.84968 16.6966 3.18195C17.0293 3.51422 17.2345 3.83114 17.4072 4.27468C17.5376 4.60908 17.6919 5.11265 17.734 6.03887C17.7801 7.04108 17.7893 7.34105 17.7893 9.87801C17.7893 12.415 17.7801 12.7149 17.734 13.7171C17.6918 14.6434 17.5368 15.1468 17.4072 15.4813C17.2345 15.9249 17.0289 16.2413 16.6966 16.5733C16.3643 16.9053 16.0474 17.1112 15.6039 17.2839C15.2695 17.4143 14.7659 17.5686 13.8397 17.6107C12.8383 17.6568 12.5375 17.666 10.0006 17.666C7.4636 17.666 7.16362 17.6568 6.16255 17.6107ZM6.08389 0.435462C5.07256 0.481518 4.38149 0.641878 3.77798 0.876718C3.15295 1.11923 2.62384 1.44459 2.09511 1.97249C1.56638 2.50038 1.24186 3.03033 0.999341 3.65535C0.764501 4.25925 0.604141 4.94994 0.558085 5.96127C0.511269 6.9742 0.500553 7.29803 0.500553 9.87793C0.500553 12.4578 0.511269 12.7817 0.558085 13.7946C0.604141 14.806 0.764501 15.4966 0.999341 16.1005C1.24186 16.7251 1.56645 17.2557 2.09511 17.7834C2.62376 18.311 3.15295 18.6359 3.77798 18.8791C4.38263 19.114 5.07256 19.2743 6.08389 19.3204C7.09735 19.3665 7.42066 19.3779 10.0006 19.3779C12.5804 19.3779 12.9043 19.3672 13.9172 19.3204C14.9286 19.2743 15.6192 19.114 16.2231 18.8791C16.8478 18.6359 17.3773 18.3113 17.906 17.7834C18.4347 17.2555 18.7586 16.7251 19.0018 16.1005C19.2366 15.4966 19.3977 14.8059 19.443 13.7946C19.4891 12.7809 19.4998 12.4578 19.4998 9.87793C19.4998 7.29803 19.4891 6.9742 19.443 5.96127C19.397 4.94986 19.2366 4.25887 19.0018 3.65535C18.7586 3.03071 18.4339 2.50122 17.906 1.97249C17.3781 1.44375 16.8478 1.11923 16.2239 0.876718C15.6192 0.641878 14.9285 0.480758 13.918 0.435462C12.905 0.389406 12.5812 0.37793 10.0013 0.37793C7.42142 0.37793 7.09735 0.388646 6.08389 0.435462Z" fill="url(#paint1_radial_201_476)"/>
</g>
<defs>
<radialGradient id="paint0_radial_201_476" cx="0" cy="0" r="1" gradientUnits="userSpaceOnUse" gradientTransform="translate(3.02482 19.4677) scale(24.8029 24.8029)">
<stop offset="0.09" stop-color="#FA8F21"/>
<stop offset="0.78" stop-color="#D82D7E"/>
</radialGradient>
<radialGradient id="paint1_radial_201_476" cx="0" cy="0" r="1" gradientUnits="userSpaceOnUse" gradientTransform="translate(12.0232 20.3189) scale(19.5481 19.5481)">
<stop offset="0.64" stop-color="#8C3AAA" stop-opacity="0"/>
<stop offset="1" stop-color="#8C3AAA"/>
</radialGradient>
<clipPath id="clip0_201_476">
<rect width="19" height="19" fill="white" transform="translate(0.5 0.37793)"/>
</clipPath>
</defs>
</svg>
