<svg width="122" height="34" viewBox="0 0 122 34" fill="none" xmlns="http://www.w3.org/2000/svg">
<path d="M45.759 13.806C46.737 13.806 47.607 14.004 48.369 14.4C49.137 14.79 49.755 15.324 50.223 16.002C50.697 16.68 50.976 17.445 51.06 18.297H48.306C48.18 17.619 47.898 17.061 47.46 16.623C47.022 16.185 46.428 15.966 45.678 15.966C44.766 15.966 44.049 16.308 43.527 16.992C43.011 17.67 42.753 18.813 42.753 20.421C42.753 22.041 43.011 23.214 43.527 23.94C44.049 24.66 44.766 25.02 45.678 25.02C46.428 25.02 47.022 24.771 47.46 24.273C47.898 23.769 48.18 23.178 48.306 22.5H51.06C50.982 23.118 50.832 23.709 50.61 24.273C50.388 24.837 50.073 25.338 49.665 25.776C49.257 26.208 48.732 26.55 48.09 26.802C47.454 27.054 46.677 27.18 45.759 27.18C44.547 27.18 43.5 26.898 42.618 26.334C41.736 25.77 41.055 24.978 40.575 23.958C40.101 22.938 39.864 21.747 39.864 20.385C39.864 19.017 40.101 17.844 40.575 16.866C41.049 15.882 41.724 15.126 42.6 14.598C43.482 14.07 44.535 13.806 45.759 13.806ZM56.5279 13.986H59.1739V24.777H64.8259V27H56.5279V13.986ZM70.0666 13.986H72.6856V27H70.0666V13.986ZM84.0547 13.806C85.0327 13.806 85.9027 14.004 86.6647 14.4C87.4327 14.79 88.0507 15.324 88.5187 16.002C88.9927 16.68 89.2717 17.445 89.3557 18.297H86.6017C86.4757 17.619 86.1937 17.061 85.7557 16.623C85.3177 16.185 84.7237 15.966 83.9737 15.966C83.0617 15.966 82.3447 16.308 81.8227 16.992C81.3067 17.67 81.0487 18.813 81.0487 20.421C81.0487 22.041 81.3067 23.214 81.8227 23.94C82.3447 24.66 83.0617 25.02 83.9737 25.02C84.7237 25.02 85.3177 24.771 85.7557 24.273C86.1937 23.769 86.4757 23.178 86.6017 22.5H89.3557C89.2777 23.118 89.1277 23.709 88.9057 24.273C88.6837 24.837 88.3687 25.338 87.9607 25.776C87.5527 26.208 87.0277 26.55 86.3857 26.802C85.7497 27.054 84.9727 27.18 84.0547 27.18C82.8427 27.18 81.7957 26.898 80.9137 26.334C80.0317 25.77 79.3507 24.978 78.8707 23.958C78.3967 22.938 78.1597 21.747 78.1597 20.385C78.1597 19.017 78.3967 17.844 78.8707 16.866C79.3447 15.882 80.0197 15.126 80.8957 14.598C81.7777 14.07 82.8307 13.806 84.0547 13.806ZM105.786 27H102.924L99.4766 20.943L97.5506 23.265V27H94.8236V13.986H97.5506V19.944L102.294 13.986H105.309L101.358 19.026L105.786 27Z" fill="#005DFF"/>
<path d="M120.974 27H118.247L116.132 21.987H113.495V27H110.876V13.986H116.366C117.404 13.986 118.253 14.151 118.913 14.481C119.573 14.811 120.059 15.27 120.371 15.858C120.683 16.44 120.839 17.112 120.839 17.874C120.839 18.558 120.734 19.137 120.524 19.611C120.314 20.079 120.035 20.469 119.687 20.781C119.339 21.093 118.961 21.348 118.553 21.546L120.974 27ZM115.898 19.962C116.6 19.962 117.155 19.776 117.563 19.404C117.977 19.026 118.184 18.537 118.184 17.937C118.184 17.343 117.986 16.872 117.59 16.524C117.194 16.17 116.693 15.993 116.087 15.993H113.495V19.962H115.898Z" fill="#FF6A00"/>
<circle cx="12.5" cy="21.5" r="12.5" fill="#005DFF"/>
<circle cx="28.5" cy="4.5" r="4.5" fill="#FF6A00"/>
</svg>
