<svg width="204" height="40" viewBox="0 0 204 40" fill="none" xmlns="http://www.w3.org/2000/svg">
<path d="M72.8069 29.6904V15.1441L67.0807 29.6904H65.1955L59.4697 15.1467V29.6904H55.1464V9.52051H61.2055L66.1376 22.1288L71.0699 9.52051H77.1588V29.6904H72.8069Z" fill="#BDBDBD"/>
<path d="M89.5766 29.6902V28.1457C88.5714 29.3548 86.8363 30.05 84.9181 30.05C82.5736 30.05 79.8337 28.4777 79.8337 25.2126C79.8337 21.7655 82.5736 20.4957 84.9181 20.4957C86.8972 20.4957 88.6018 21.1306 89.5766 22.2799V20.4352C89.5766 18.9537 88.2979 17.986 86.3491 17.986C84.7962 17.986 83.3346 18.5912 82.1172 19.7075L80.5936 17.0167C82.3881 15.4142 84.7036 14.7183 87.0177 14.7183C90.3975 14.7183 93.4725 16.0485 93.4725 20.2511V29.6902H89.5766ZM89.5766 26.1823V24.3662C88.937 23.5193 87.7189 23.0659 86.4706 23.0659C84.9474 23.0659 83.7003 23.8821 83.7003 25.2731C83.7003 26.6646 84.9485 27.4501 86.4706 27.4501C87.7189 27.4501 88.9396 27.0265 89.5766 26.1797V26.1823Z" fill="#BDBDBD"/>
<path d="M96.5881 29.6904V15.0835H100.453V29.6904H96.5881Z" fill="#BDBDBD"/>
<path d="M103.648 29.6904V9.52051H107.515V29.6904H103.648Z" fill="#BDBDBD"/>
<path d="M110.96 29.6904V9.52051H121.647C125.514 9.52051 127.492 11.9723 127.492 14.6605C127.492 17.1702 125.909 18.8933 123.991 19.2867C126.183 19.619 127.888 21.7051 127.888 24.215C127.888 27.2687 125.878 29.6878 121.982 29.6878L110.96 29.6904ZM123.078 15.419C123.078 14.1795 122.164 13.3026 120.703 13.3026H115.282V17.5354H120.701C122.163 17.5354 123.076 16.719 123.076 15.419H123.078ZM123.474 23.6128C123.474 22.3432 122.56 21.3149 120.885 21.3149H115.282V25.9109H120.884C122.498 25.9109 123.472 25.0641 123.472 23.6128H123.474Z" fill="#BDBDBD"/>
<path d="M130.693 29.6904V9.52051H134.56V29.6904H130.693Z" fill="#BDBDBD"/>
<path d="M147.642 29.6904V27.8429C146.638 28.9317 144.872 30.0501 142.466 30.0501C139.239 30.0501 137.717 28.2967 137.717 25.4544V15.0835H141.585V23.9423C141.585 25.9688 142.65 26.6337 144.294 26.6337C145.786 26.6337 146.973 25.8175 147.643 24.9707V15.0835H151.51V29.6904H147.642Z" fill="#BDBDBD"/>
<path d="M153.601 27.7827L155.275 25.0035C156.372 26.0319 158.532 27.0292 160.36 27.0292C162.034 27.0292 162.826 26.3942 162.826 25.4873C162.826 23.0992 154.119 25.064 154.119 19.3195C154.119 16.8677 156.25 14.7236 160.147 14.7236C162.616 14.7236 164.592 15.5703 166.054 16.719L164.501 19.4405C163.618 18.5334 161.943 17.7472 160.147 17.7472C158.747 17.7472 157.836 18.3518 157.836 19.1682C157.836 21.3149 166.573 19.5005 166.573 25.3965C166.573 28.0879 164.262 30.0527 160.18 30.0527C157.62 30.0501 155.154 29.2037 153.601 27.7827Z" fill="#BDBDBD"/>
<path d="M169.855 26.0293V18.4399H167.42V15.0835H169.855V11.0928H173.722V15.0835H176.706V18.4399H173.722V25.0035C173.722 25.9426 174.21 26.6363 175.062 26.6363C175.64 26.6363 176.188 26.4245 176.402 26.1824L177.224 29.1166C176.646 29.6309 175.61 30.0553 173.996 30.0553C171.287 30.0501 169.855 28.6594 169.855 26.0293Z" fill="#BDBDBD"/>
<path d="M177.815 22.3705C177.815 18.1371 180.981 14.7207 185.426 14.7207C189.839 14.7207 192.794 17.9858 192.794 22.7329V23.6387H181.864C182.138 25.4224 183.597 26.9039 186.096 26.9039C187.344 26.9039 189.049 26.3899 189.993 25.4829L191.726 28.0226C190.265 29.3532 187.951 30.0483 185.668 30.0483C181.193 30.0498 177.815 27.0566 177.815 22.3705ZM185.426 17.8653C183.021 17.8653 181.986 19.5279 181.833 20.9792H189.082C188.958 19.5884 187.983 17.8653 185.426 17.8653Z" fill="#BDBDBD"/>
<path d="M195.052 29.6901V15.0833H198.919V17.0489C199.984 15.7787 201.781 14.7207 203.607 14.7207V18.47C203.334 18.4094 202.999 18.3792 202.542 18.3792C201.263 18.3792 199.558 19.1048 198.918 20.0422V29.6901H195.052Z" fill="#BDBDBD"/>
<path fill-rule="evenodd" clip-rule="evenodd" d="M20.9447 39.317C27.5466 39.1044 33.8915 35.6102 37.4374 29.509C42.8941 20.1196 39.6563 8.11403 30.2036 2.69295C20.7508 -2.72817 8.6646 0.489229 3.20712 9.87795C-0.339644 15.976 -0.213147 23.1846 2.90352 28.9732C3.67728 30.4127 5.73872 30.4536 6.55994 29.0397L8.84647 25.1067C8.85434 25.0926 8.8633 25.0783 8.87229 25.065C8.94379 24.9546 9.03647 24.8594 9.14502 24.7845C9.2536 24.71 9.3759 24.6572 9.50499 24.6296C9.63406 24.6019 9.76739 24.5997 9.8973 24.6229C10.0272 24.6465 10.1512 24.6952 10.2622 24.7665C10.4787 24.9115 10.6312 25.1332 10.6887 25.386C10.7461 25.6391 10.704 25.9044 10.5711 26.1276L7.11338 32.0775C6.86842 32.4978 6.77982 32.99 6.86307 33.4686C6.94631 33.9472 7.19607 34.3814 7.56879 34.6954L7.60725 34.7279C7.84129 34.9205 8.11484 35.06 8.40878 35.1368C8.70276 35.2131 9.01001 35.2249 9.30908 35.1714C9.60812 35.1179 9.89177 34.9999 10.1402 34.8261C10.3886 34.6519 10.5957 34.4265 10.7471 34.1645L15.959 25.2044C15.9674 25.1904 15.9759 25.1764 15.9848 25.1627C16.1295 24.9403 16.3572 24.7838 16.618 24.7277C16.8787 24.672 17.1511 24.7211 17.3753 24.865C17.5923 25.0093 17.7455 25.231 17.8034 25.4838C17.8613 25.7369 17.8196 26.0026 17.6868 26.2262L12.4902 35.1637C12.4306 35.2663 12.3796 35.3736 12.3379 35.4843C12.1462 35.9998 12.1684 36.5699 12.3997 37.0691C12.631 37.5684 13.0524 37.9558 13.5713 38.1462L13.6192 38.1635C14.0797 38.3274 14.5836 38.3251 15.0426 38.1573C15.5016 37.9894 15.8866 37.6665 16.1303 37.2451L19.6022 31.2724L19.6275 31.2311C19.699 31.1207 19.7916 31.0255 19.9002 30.9506C20.0087 30.8757 20.131 30.823 20.2601 30.7953C20.3892 30.7676 20.5225 30.7654 20.6525 30.7886C20.7824 30.8123 20.9064 30.861 21.0175 30.9318C21.2353 31.0765 21.389 31.2986 21.4471 31.5521C21.5051 31.8059 21.463 32.072 21.3295 32.2959L19.0577 36.2042C18.236 37.6174 19.3018 39.3694 20.9447 39.317ZM19.8396 21.8174C20.8204 26.8125 24.3247 30.6182 26.444 32.521C26.5882 32.6502 26.7666 32.7343 26.9568 32.7635C27.1475 32.793 27.3422 32.766 27.5183 32.6863C27.6941 32.607 27.8431 32.4779 27.9479 32.3148C28.0527 32.1517 28.1085 31.9616 28.1088 31.7672V7.61121C28.1088 7.43425 28.0628 7.26038 27.9747 7.1071C27.887 6.95379 27.7606 6.82649 27.6086 6.73794C27.4567 6.64942 27.2842 6.60274 27.1085 6.60267C26.9331 6.60259 26.7603 6.64908 26.6083 6.73749L5.84805 18.8161C5.68097 18.9133 5.54537 19.0571 5.45752 19.2301C5.36971 19.4032 5.33344 19.5982 5.35306 19.7916C5.37268 19.985 5.44738 20.1686 5.56811 20.3202C5.68889 20.4717 5.85057 20.5849 6.0337 20.646C8.73048 21.543 13.7491 22.7005 18.5321 21.0562C18.5759 21.0408 18.6208 21.0288 18.6664 21.0202C18.7953 20.9949 18.928 20.9954 19.0568 21.0217C19.1856 21.0481 19.3079 21.0998 19.4169 21.1738C19.5258 21.2478 19.6192 21.3428 19.6918 21.4532C19.7643 21.5636 19.8146 21.6874 19.8396 21.8174Z" fill="#BDBDBD"/>
<path d="M100.178 13.7742C99.8252 13.4612 99.2414 12.8352 99.0786 12.0177C99.0742 11.9963 99.066 11.9759 99.0537 11.9577C99.0415 11.9396 99.0255 11.924 99.0073 11.9118C98.9891 11.8997 98.9686 11.8913 98.9471 11.8871C98.9255 11.8829 98.9032 11.883 98.8817 11.8873C98.8746 11.8885 98.8676 11.8903 98.8605 11.8925C98.0638 12.1627 97.228 11.9728 96.7787 11.8257C96.7371 11.8118 96.7025 11.782 96.6829 11.7429C96.6632 11.7038 96.6598 11.6586 96.6736 11.6171C96.6869 11.5785 96.7133 11.5459 96.749 11.5253L100.206 9.54289C100.225 9.53208 100.247 9.52507 100.268 9.52234C100.29 9.51957 100.312 9.52109 100.333 9.52681C100.354 9.53252 100.374 9.5423 100.392 9.55562C100.409 9.56898 100.423 9.58555 100.434 9.60448C100.449 9.62935 100.457 9.65761 100.457 9.68635V13.651C100.457 13.6829 100.447 13.7141 100.429 13.7409C100.412 13.7676 100.387 13.7887 100.358 13.8017C100.329 13.8147 100.296 13.819 100.264 13.8142C100.232 13.8093 100.203 13.7954 100.179 13.7742H100.178Z" fill="#BDBDBD"/>
</svg>
