<svg width="14" height="19" viewBox="0 0 14 19" fill="none" xmlns="http://www.w3.org/2000/svg">
<path d="M6.04688 17.7764C6.36328 18.2686 7.10156 18.2686 7.41797 17.7764C12.5508 10.3936 13.5 9.62012 13.5 6.87793C13.5 3.15137 10.4766 0.12793 6.75 0.12793C2.98828 0.12793 0 3.15137 0 6.87793C0 9.62012 0.914062 10.3936 6.04688 17.7764ZM6.75 9.69043C5.16797 9.69043 3.9375 8.45996 3.9375 6.87793C3.9375 5.33105 5.16797 4.06543 6.75 4.06543C8.29688 4.06543 9.5625 5.33105 9.5625 6.87793C9.5625 8.45996 8.29688 9.69043 6.75 9.69043Z" fill="#28A154"/>
</svg>
