<svg width="133" height="37" viewBox="0 0 133 37" fill="none" xmlns="http://www.w3.org/2000/svg">
<g clip-path="url(#clip0_201_38)">
<path d="M125.696 17.8278L132.8 36.6549C130.706 36.3556 128.614 35.9807 126.483 35.6429L122.481 25.2402L118.369 34.7842C116.351 34.4464 114.368 34.3339 112.35 34.0717L119.566 17.604L113.021 0.725342H119.079L122.742 10.1557L126.668 0.725342H132.799L125.696 17.8278ZM108.238 0.725342H102.742V33.3614C104.536 33.474 106.405 33.5482 108.238 33.7722V0.725342ZM97.9933 32.9866C92.9841 32.65 87.9734 32.3519 82.8517 32.2381V0.725486H88.4593V26.924C91.6752 26.9983 94.8899 27.2594 97.9933 27.4091V32.9866ZM76.8685 13.4887V19.1021H69.2045V31.8643H63.6724V0.725342H79.375V6.33873H69.2056V13.4888H76.8697L76.8685 13.4887ZM54.2495 6.33873V32.1637C52.3795 32.1637 50.4738 32.1637 48.6408 32.2381V6.33873H42.8456V0.725342H60.0806V6.33873H54.2495ZM36.7894 19.4004C34.3224 19.4004 31.4055 19.4004 29.3119 19.5142V27.8594C32.6019 27.6342 35.892 27.3731 39.2191 27.2606V32.65L23.7044 33.886V0.725342H39.2181V6.33873H29.3117V13.8995C31.4808 13.8995 34.808 13.787 36.7891 13.787V19.4015L36.7894 19.4004ZM5.71886 16.2565V35.8681C3.70174 36.0932 1.9059 36.3555 0 36.6549V0.725342H5.34678L12.6366 21.1239V0.725342H18.2452V34.3339C16.2639 34.6717 14.2445 34.7842 12.1137 35.0825L5.71886 16.2565Z" fill="#BDBDBD"/>
</g>
<defs>
<clipPath id="clip0_201_38">
<rect width="132.8" height="36" fill="white" transform="translate(0 0.688721)"/>
</clipPath>
</defs>
</svg>
