<svg width="18" height="19" viewBox="0 0 18 19" fill="none" xmlns="http://www.w3.org/2000/svg">
<path d="M17.4727 12.8545L13.5352 11.167C13.4297 11.1318 13.3242 11.0967 13.1836 11.0967C12.9375 11.0967 12.6914 11.2373 12.5508 11.4131L10.793 13.5576C8.05078 12.2568 5.87109 10.0771 4.57031 7.33496L6.71484 5.57715C6.89062 5.43652 7.03125 5.19043 7.03125 4.90918C7.03125 4.80371 6.99609 4.69824 6.96094 4.59277L5.27344 0.655273C5.13281 0.338867 4.81641 0.12793 4.46484 0.12793C4.42969 0.12793 4.35938 0.163086 4.28906 0.163086L0.632812 1.00684C0.246094 1.1123 0 1.42871 0 1.81543C0 10.8506 7.27734 18.1279 16.3125 18.1279C16.6992 18.1279 17.0156 17.8818 17.1211 17.4951L17.9648 13.8389C17.9648 13.7686 17.9648 13.6982 17.9648 13.6631C17.9648 13.3115 17.7539 12.9951 17.4727 12.8545Z" fill="#005DFF"/>
</svg>
