<svg width="66" height="66" viewBox="0 0 66 66" fill="none" xmlns="http://www.w3.org/2000/svg">
    <path d="M28.5325 29.3152L28.5325 57.7527L0.0949745 57.7527L0.094972 28.9089C0.0949703 9.40894 18.3762 6.97144 18.3762 6.97144L20.8137 12.6589C20.8137 12.6589 12.6887 13.8777 11.0637 20.3777C9.43872 25.2527 12.6887 29.3152 12.6887 29.3152L28.5325 29.3152Z"
          fill="#B8D2FF"/>
    <path d="M65.095 29.3152L65.095 57.7527L36.6575 57.7527L36.6575 28.9089C36.6575 9.40894 54.9387 6.97144 54.9387 6.97144L57.3762 12.6589C57.3762 12.6589 49.2512 13.8777 47.6262 20.3777C46.0012 25.2527 49.2512 29.3152 49.2512 29.3152L65.095 29.3152Z"
          fill="#B8D2FF"/>
</svg>
