<svg width="15" height="14" viewBox="0 0 15 14" fill="none" xmlns="http://www.w3.org/2000/svg">
    <path d="M6.50391 1.21558C6.21094 1.50854 6.24023 1.948 6.50391 2.24097L10.0488 5.58081H1.64062C1.23047 5.58081 0.9375 5.90308 0.9375 6.28394V7.22144C0.9375 7.63159 1.23047 7.92456 1.64062 7.92456H10.0488L6.50391 11.2937C6.24023 11.5867 6.24023 12.0261 6.50391 12.3191L7.14844 12.9636C7.44141 13.2273 7.88086 13.2273 8.14453 12.9636L13.8574 7.25073C14.1211 6.98706 14.1211 6.54761 13.8574 6.25464L8.14453 0.571045C7.88086 0.307373 7.44141 0.307373 7.14844 0.571045L6.50391 1.21558Z"
    />
</svg>
