<svg width="134" height="49" viewBox="0 0 134 49" fill="none" xmlns="http://www.w3.org/2000/svg">
<g clip-path="url(#clip0_201_70)">
<path d="M56.6159 25.5156C52.5935 25.5156 50.5823 23.5626 50.5823 19.6569V14.1771H48.4788L47.2643 10.8834H50.5823V6.68604H54.9836V10.8834H59.2101V14.1771H54.9836V19.482C54.9836 20.2982 55.1682 20.9102 55.5374 21.3182C55.9261 21.7263 56.5382 21.9304 57.3738 21.9304C57.7798 21.9304 58.216 21.8688 58.6067 21.7538L59.7348 24.816C59.3267 25.0298 58.8409 25.1949 58.2773 25.3115C57.7138 25.4476 57.16 25.5156 56.6159 25.5156Z" fill="#BDBDBD"/>
<path d="M61.3759 25.1949V6.57251H65.7773V12.8362C66.2825 12.0978 66.9335 11.544 67.7302 11.1748C68.5269 10.7861 69.4111 10.5918 70.3827 10.5918C73.7444 10.5918 75.4253 12.5933 75.4253 16.5963V25.1949H71.0239V16.8003C71.0239 15.8093 70.8393 15.1 70.4701 14.6725C70.1009 14.2256 69.5568 14.0021 68.8378 14.0021C67.9051 14.0021 67.157 14.2936 66.5934 14.8766C66.0493 15.4595 65.7773 16.2368 65.7773 17.2084V25.1949H61.3759Z" fill="#BDBDBD"/>
<path d="M86.1435 25.5155C84.4529 25.5155 82.9955 25.2143 81.7713 24.6119C80.5665 23.9901 79.6337 23.1254 78.9731 22.0177C78.3318 20.8907 78.0112 19.5694 78.0112 18.0537C78.0112 16.5769 78.3221 15.2846 78.9439 14.177C79.5852 13.0499 80.4499 12.1755 81.5381 11.5537C82.6457 10.9124 83.9185 10.5918 85.3565 10.5918C87.4357 10.5918 89.0874 11.2525 90.3116 12.5739C91.5359 13.8758 92.148 15.6441 92.148 17.8788V18.9864H82.2085C82.3639 20.1135 82.772 20.9392 83.4327 21.4639C84.1128 21.9691 85.0456 22.2218 86.2309 22.2218C87.0082 22.2218 87.7952 22.1052 88.5919 21.872C89.3886 21.6388 90.1076 21.2793 90.7489 20.7935L91.9148 23.7375C91.1958 24.2816 90.3116 24.7188 89.2623 25.0491C88.2324 25.36 87.1928 25.5155 86.1435 25.5155ZM85.5314 13.5066C84.5986 13.5066 83.8408 13.7884 83.2578 14.3519C82.6943 14.9154 82.3445 15.7024 82.2085 16.7129H88.5045C88.3879 14.5754 87.3968 13.5066 85.5314 13.5066Z" fill="#BDBDBD"/>
<path d="M94.7665 25.1949V10.8833H99.0804V12.9528C99.5079 12.2144 100.091 11.6411 100.829 11.2331C101.587 10.8055 102.462 10.5918 103.453 10.5918C104.463 10.5918 105.318 10.8153 106.018 11.2622C106.737 11.7091 107.281 12.3893 107.65 13.3026C108.097 12.4476 108.738 11.7869 109.574 11.3205C110.429 10.8347 111.371 10.5918 112.401 10.5918C114.033 10.5918 115.248 11.0873 116.045 12.0783C116.841 13.0499 117.24 14.5559 117.24 16.5963V25.1949H112.838V16.742C112.838 15.7899 112.683 15.1 112.372 14.6725C112.08 14.2256 111.575 14.0021 110.856 14.0021C110.021 14.0021 109.37 14.2936 108.903 14.8766C108.437 15.4595 108.204 16.2854 108.204 17.3541V25.1949H103.802V16.742C103.802 15.7899 103.647 15.1 103.336 14.6725C103.025 14.2256 102.52 14.0021 101.82 14.0021C100.985 14.0021 100.334 14.2936 99.8674 14.8766C99.401 15.4595 99.1678 16.2854 99.1678 17.3541V25.1949H94.7665Z" fill="#BDBDBD"/>
<path d="M127.639 25.5155C125.948 25.5155 124.491 25.2143 123.267 24.6119C122.062 23.9901 121.129 23.1254 120.469 22.0177C119.827 20.8907 119.507 19.5694 119.507 18.0537C119.507 16.5769 119.818 15.2846 120.44 14.177C121.081 13.0499 121.945 12.1755 123.034 11.5537C124.141 10.9124 125.414 10.5918 126.852 10.5918C128.931 10.5918 130.583 11.2525 131.807 12.5739C133.031 13.8758 133.644 15.6441 133.644 17.8788V18.9864H123.704C123.86 20.1135 124.268 20.9392 124.928 21.4639C125.608 21.9691 126.541 22.2218 127.727 22.2218C128.504 22.2218 129.291 22.1052 130.088 21.872C130.884 21.6388 131.603 21.2793 132.244 20.7935L133.41 23.7375C132.691 24.2816 131.807 24.7188 130.758 25.0491C129.728 25.36 128.688 25.5155 127.639 25.5155ZM127.027 13.5066C126.094 13.5066 125.336 13.7884 124.753 14.3519C124.19 14.9154 123.84 15.7024 123.704 16.7129H130C129.883 14.5754 128.892 13.5066 127.027 13.5066Z" fill="#BDBDBD"/>
<path d="M52.9928 41.8805L47.1632 27.5688H51.6229L55.0332 36.7505L58.4435 27.5688H61.3583L64.7686 36.8671L68.1789 27.5688H72.4054L66.6341 41.8805H62.9032L59.7552 33.7482L56.6946 41.8805H52.9928Z" fill="#BDBDBD"/>
<path d="M77.9939 42.261C76.9251 42.261 75.9827 42.0569 75.1665 41.6488C74.3504 41.2408 73.6994 40.687 73.2136 39.9874C72.7472 39.2879 72.514 38.5009 72.514 37.6264C72.514 36.5965 72.7861 35.7707 73.3302 35.1488C73.8743 34.527 74.7584 34.0898 75.9827 33.8372C77.2069 33.5651 78.8294 33.4291 80.8504 33.4291H81.8997V32.9336C81.8997 32.0786 81.7054 31.4762 81.3167 31.1264C80.9281 30.7572 80.2674 30.5726 79.3347 30.5726C78.5574 30.5726 77.7315 30.6989 76.8571 30.9515C76.0021 31.1847 75.1471 31.5442 74.2921 32.03L73.097 29.086C73.6022 28.7557 74.2143 28.4545 74.9333 28.1825C75.6717 27.9104 76.4393 27.7064 77.236 27.5703C78.0327 27.4149 78.7906 27.3372 79.5096 27.3372C81.7248 27.3372 83.3765 27.8424 84.4647 28.8529C85.5529 29.8439 86.097 31.3887 86.097 33.4874V41.9403H81.9871V39.7834C81.6957 40.5412 81.2002 41.1436 80.5006 41.5905C79.8205 42.0375 78.9849 42.261 77.9939 42.261ZM78.9849 39.317C79.8011 39.317 80.4909 39.0352 81.0544 38.4717C81.6179 37.9082 81.8997 37.1795 81.8997 36.2856V35.7026H80.8795C79.3833 35.7026 78.3242 35.8387 77.7024 36.1107C77.0806 36.3633 76.7697 36.8103 76.7697 37.4515C76.7697 37.9956 76.9543 38.4426 77.3235 38.7923C77.7121 39.1421 78.2659 39.317 78.9849 39.317Z" fill="#BDBDBD"/>
<path d="M95.9225 42.2609C94.2408 42.2609 92.8091 41.9481 91.6276 41.3227C90.46 40.6972 89.3955 39.9161 88.6788 38.7582C87.9327 37.5528 87.7679 36.2564 87.7679 34.7552C87.7679 33.1984 87.9703 31.7423 88.78 30.595C89.6149 29.4116 90.5851 28.6673 91.7944 28.0419C93.0036 27.4164 94.5288 27.3662 96.1726 27.3662C97.059 27.3662 98.1521 27.3917 99.0832 27.6698C100.015 27.9478 100.703 28.1759 101.385 28.6048L100.217 31.5654C99.149 30.8686 97.6863 30.595 96.1726 30.595C94.8525 30.595 93.7612 31.0688 93.0661 31.8194C92.3852 32.5699 92.0237 33.3375 92.0237 34.7552C92.0237 36.173 92.5182 37.1691 93.2131 37.8919C93.9082 38.6145 94.7897 39.0501 96.1518 39.0501C96.7912 39.0501 97.507 38.9528 98.2992 38.7582V36.444H95.3595V33.7545H101.427V41.135C100.648 41.4963 99.7795 41.7745 98.8205 41.969C97.8614 42.1635 96.8955 42.2609 95.9225 42.2609Z" fill="#BDBDBD"/>
<path d="M110.62 42.261C109.085 42.261 107.745 41.9598 106.598 41.3574C105.471 40.7355 104.597 39.8708 103.975 38.7632C103.353 37.6361 103.042 36.305 103.042 34.7699C103.042 33.2542 103.353 31.9425 103.975 30.8349C104.597 29.7079 105.471 28.8431 106.598 28.2407C107.745 27.6384 109.085 27.3372 110.62 27.3372C112.156 27.3372 113.487 27.6384 114.614 28.2407C115.76 28.8431 116.644 29.7079 117.266 30.8349C117.907 31.9425 118.228 33.2542 118.228 34.7699C118.228 36.305 117.907 37.6361 117.266 38.7632C116.644 39.8708 115.76 40.7355 114.614 41.3574C113.487 41.9598 112.156 42.261 110.62 42.261ZM110.62 38.9672C111.553 38.9672 112.311 38.6272 112.894 37.947C113.496 37.2669 113.798 36.2079 113.798 34.7699C113.798 33.3514 113.496 32.3118 112.894 31.6511C112.311 30.9709 111.553 30.6309 110.62 30.6309C109.688 30.6309 108.93 30.9709 108.347 31.6511C107.764 32.3118 107.472 33.3514 107.472 34.7699C107.472 36.2079 107.764 37.2669 108.347 37.947C108.93 38.6272 109.688 38.9672 110.62 38.9672Z" fill="#BDBDBD"/>
<path d="M119.894 41.9403V27.6286H124.208V29.7273C124.694 28.95 125.345 28.3573 126.161 27.9493C126.977 27.5412 127.89 27.3372 128.901 27.3372C130.591 27.3372 131.854 27.8327 132.69 28.8237C133.525 29.7953 133.943 31.3013 133.943 33.3417V41.9403H129.542V33.5457C129.542 32.5547 129.357 31.8454 128.988 31.4179C128.619 30.9709 128.075 30.7475 127.356 30.7475C126.423 30.7475 125.675 31.039 125.111 31.6219C124.567 32.2049 124.295 32.9822 124.295 33.9538V41.9403H119.894Z" fill="#BDBDBD"/>
<path d="M43.4857 26.2289C43.4857 22.4779 42.3694 18.6912 39.6659 16.091C37.7318 14.2308 35.7923 12.9731 32.705 11.2807C27.945 8.67161 21.6235 7.37062 21.6235 7.37062C24.8992 6.68934 27.7005 7.34163 27.8164 7.36882C18.2623 2.6923 11.417 5.95915 11.417 5.95915L6.81115 2.61621C5.91243 4.1998 6.48681 6.82887 6.83106 8.00842C6.94523 8.41428 6.88723 8.85818 6.65893 9.20608L3.7907 13.6307C3.67656 13.8047 3.60045 14.0185 3.60045 14.2504L3.52436 16.9555C2.01323 19.0809 1.23049 21.1683 0.828253 22.7917C0.445942 22.8696 0.121613 23.2374 0.0255821 23.7194C-0.0686367 24.2412 0.101682 24.725 0.465872 24.9369C0.407892 25.5567 0.427824 25.9045 0.427824 25.9045L2.93187 30.0392C3.37034 30.677 4.17301 30.9289 4.89958 30.6192L7.70984 29.4595C8.16825 29.2656 8.45453 28.8217 8.45453 28.3197V25.8646C8.45453 25.5948 8.55055 25.3428 8.72269 25.149C9.23908 24.5511 10.5962 23.4113 13.5387 23.4113C17.514 23.4113 18.5468 18.7149 18.2225 16.7816C18.2225 16.7816 19.7499 21.3821 16.9596 23.8932C15.7565 24.9768 15.6025 26.8303 16.5392 28.164C18.4653 31.1807 18.632 43.1429 5.76566 43.7987C10.1106 46.9497 15.4539 48.8069 21.232 48.8069C24.2199 48.8069 27.5737 48.0385 29.7679 47.3936C34.0638 45.7067 36.4558 43.7987 38.7984 41.244C42.3986 37.3177 42.8878 32.4146 41.9982 28.2037C39.9343 18.425 27.2438 9.55395 14.6277 7.66052C20.8407 8.58822 31.4527 10.6392 38.6842 18.6189C40.7497 20.8981 43.4857 26.2289 43.4857 26.2289ZM5.95049 17.5154C4.97569 15.352 8.28239 15.0621 8.28239 15.0621C7.82398 18.521 5.95049 17.5154 5.95049 17.5154Z" fill="#BDBDBD"/>
<path d="M11.8212 4.94277C13.4465 4.40464 14.3199 4.17634 15.8147 3.88461L10.658 0.5C10.1652 0.923984 9.38787 2.82828 10.0238 3.67444L11.8212 4.94277Z" fill="#BDBDBD"/>
</g>
<defs>
<clipPath id="clip0_201_70">
<rect width="134" height="48.3776" fill="white" transform="translate(0 0.5)"/>
</clipPath>
</defs>
</svg>
