<svg width="23" height="19" viewBox="0 0 23 19" fill="none" xmlns="http://www.w3.org/2000/svg">
<path d="M20.2227 5.15918C21.082 4.51465 21.8555 3.74121 22.457 2.83887C21.6836 3.18262 20.7812 3.44043 19.8789 3.52637C20.8242 2.96777 21.5117 2.1084 21.8555 1.03418C20.9961 1.5498 20.0078 1.93652 19.0195 2.15137C18.1602 1.24902 17 0.733398 15.7109 0.733398C13.2188 0.733398 11.1992 2.75293 11.1992 5.24512C11.1992 5.58887 11.2422 5.93262 11.3281 6.27637C7.58984 6.06152 4.23828 4.25684 2.00391 1.5498C1.61719 2.19434 1.40234 2.96777 1.40234 3.82715C1.40234 5.37402 2.17578 6.74902 3.42188 7.56543C2.69141 7.52246 1.96094 7.35059 1.35938 7.00684V7.0498C1.35938 9.24121 2.90625 11.0459 4.96875 11.4756C4.625 11.5615 4.19531 11.6475 3.80859 11.6475C3.50781 11.6475 3.25 11.6045 2.94922 11.5615C3.50781 13.3662 5.18359 14.6553 7.16016 14.6982C5.61328 15.9014 3.67969 16.6318 1.57422 16.6318C1.1875 16.6318 0.84375 16.5889 0.5 16.5459C2.47656 17.835 4.83984 18.5654 7.41797 18.5654C15.7109 18.5654 20.2227 11.7334 20.2227 5.76074C20.2227 5.5459 20.2227 5.37402 20.2227 5.15918Z" fill="#00ACEE"/>
</svg>
